# xmcd
#
# Track frame offsets:
#	150
#	24795
#	40967
#	61420
#	79870
#	99640
#	119477
#	137982
#	156905
#	179835
#
# Disc length: 2671 seconds
#
# Revision: 4
# Processed by: cddbd v1.5.2PL0 Copyright (c) Steve Scherf et al.
# Submitted via: EasyCDDAExtractor 11.0.3.1
#
DISCID=8a0a6d0a
DTITLE=Miki Howard - Love Confessions
DYEAR=1900
DGENRE=R and B
TTITLE0=Baby, Be Mine
TTITLE1=You've Changed
TTITLE2=That's What Love Is
TTITLE3=In Too Deep
TTITLE4=Crazy
TTITLE5=Bitter Love
TTITLE6=I Wanna Be There
TTITLE7=Reasons
TTITLE8=Love Confession
TTITLE9=Edge Of Love
EXTD=
EXTT0=
EXTT1=
EXTT2=
EXTT3=
EXTT4=
EXTT5=
EXTT6=
EXTT7=
EXTT8=
EXTT9=
PLAYORDER=
